<svg
  xmlns="http://www.w3.org/2000/svg"
  version="1.1"
  xlink="http://www.w3.org/1999/xlink"
  width="100%"
  height="100%"
  viewBox="19 19 62 62"
>
  <g fill="#808080">
    <path d="M36 53h11v6.43A11 11 0 0 0 39.43 67H22v6h17.43a11 11 0 0 0 21.15 0H77v-6H60.57A11 11 0 0 0 53 59.43V53h11a17 17 0 0 0 0-34H36a17 17 0 0 0 0 34zm19 17a5 5 0 1 1-5-5 5 5 0 0 1 5 5zM36 25h28a11 11 0 0 1 0 22H36a11 11 0 0 1 0-22z"></path>
    <circle cx="37" cy="36" r="3"></circle>
    <circle cx="49" cy="36" r="3"></circle>
  </g>
</svg>
